<svg width="38" height="38" viewBox="0 0 38 38" fill="none" xmlns="http://www.w3.org/2000/svg">
<path d="M23.2749 9.975C22.9848 10.271 22.8223 10.6689 22.8223 11.0833C22.8223 11.4978 22.9848 11.8957 23.2749 12.1917L25.8082 14.725C26.1042 15.0151 26.5021 15.1776 26.9166 15.1776C27.331 15.1776 27.7289 15.0151 28.0249 14.725L33.9941 8.75584C34.7902 10.5152 35.0313 12.4755 34.6851 14.3753C34.339 16.2752 33.422 18.0244 32.0565 19.3899C30.691 20.7555 28.9417 21.6724 27.0419 22.0186C25.142 22.3647 23.1818 22.1237 21.4224 21.3275L10.4816 32.2683C9.85167 32.8982 8.99736 33.2521 8.10656 33.2521C7.21576 33.2521 6.36145 32.8982 5.73156 32.2683C5.10167 31.6384 4.7478 30.7841 4.7478 29.8933C4.7478 29.0025 5.10167 28.1482 5.73156 27.5183L16.6724 16.5775C15.8762 14.8181 15.6352 12.8579 15.9813 10.958C16.3275 9.05816 17.2444 7.30892 18.61 5.9434C19.9755 4.57788 21.7247 3.66094 23.6246 3.31478C25.5244 2.96862 27.4847 3.20968 29.2441 4.00584L23.2749 9.975Z" stroke="#1E1E1E" stroke-width="4" stroke-linecap="round" stroke-linejoin="round"/>
</svg>
